<svg version="1.2" xmlns="http://www.w3.org/2000/svg" viewBox="0 0 1564 1215" width="1564" height="1215" xmlns:c2pa="http://c2pa.org/manifest"><metadata><c2pa:manifest>AAAWgmp1bWIAAAAeanVtZGMycGEAEQAQgAAAqgA4m3EDYzJwYQAAABZcanVtYgAAAEdqdW1kYzJtYQARABCAAACqADibcQN1cm46YzJwYTo3MWNhNjliMS1kZmY1LTRhNDEtOTY1YS0zNGZhMTk2MWM0ZmUAAAADl2p1bWIAAAApanVtZGMyYXMAEQAQgAAAqgA4m3EDYzJwYS5hc3NlcnRpb25zAAAAALxqdW1iAAAARGp1bWRjYm9yABEAEIAAAKoAOJtxE2MycGEuaW5ncmVkaWVudC52MwAAAAAYYzJzaJcfGGYRYNcHwVHlU0n1IRUAAABwY2JvcqNpZGM6Zm9ybWF0bWltYWdlL3N2Zyt4bWxqaW5zdGFuY2VJRHgseG1wOmlpZDpmYmExYTRlZi1kOTllLTQ5NjAtOGUxNS03NDZmMzQ4OTFhNGJscmVsYXRpb25zaGlwaHBhcmVudE9mAAAB4mp1bWIAAABBanVtZGNib3IAEQAQgAAAqgA4m3ETYzJwYS5hY3Rpb25zLnYyAAAAABhjMnNowchuXjc/N0BATuKbn6efkQAAAZljYm9yomdhY3Rpb25zgqJmYWN0aW9ua2MycGEub3BlbmVkanBhcmFtZXRlcnOha2luZ3JlZGllbnRzgaJjdXJseC1zZWxmI2p1bWJmPWMycGEuYXNzZXJ0aW9ucy9jMnBhLmluZ3JlZGllbnQudjNkaGFzaFggN4FlRSuumt/Q9p8dzOI/I4ZiAYFoHUwf5DhaCQJ+qHikZmFjdGlvbngdY29tLmFudGhyb3BpYy5jbGF1ZGUucHJvdmlkZWRqcGFyYW1ldGVyc6F4H2NvbS5hbnRocm9waWMub3JpZ2luLWNvbmZpZGVuY2VndW5rbm93bmtkZXNjcmlwdGlvbnhmQ2xhdWRlIHByb3ZpZGVkIHRoaXMgZmlsZSBhdCB0aGUgcmVxdWVzdCBvZiBhIHVzZXIgYW5kIG1heSBoYXZlIGNyZWF0ZWQgb3IgbW9kaWZpZWQgdGhlIGZpbGUgY29udGVudHMubXNvZnR3YXJlQWdlbnShZG5hbWVmQ2xhdWRlcmFsbEFjdGlvbnNJbmNsdWRlZPUAAADIanVtYgAAAEBqdW1kY2JvcgARABCAAACqADibcRNjMnBhLmhhc2guZGF0YQAAAAAYYzJzaObFwbM61oP89eYnRjuiTaoAAACAY2JvcqVjYWxnZnNoYTI1NmNwYWRNAAAAAAAAAAAAAAAAAGRoYXNoWCDP8fIMhQzfUinXhurT1AEL3T0bDlBtfs8ZdGJN00S1NmRuYW1lbmp1bWJmIG1hbmlmZXN0amV4Y2x1c2lvbnOBomVzdGFydBioZmxlbmd0aBkeBAAAAj5qdW1iAAAAJ2p1bWRjMmNsABEAEIAAAKoAOJtxA2MycGEuY2xhaW0udjIAAAACD2Nib3KlY2FsZ2ZzaGEyNTZpc2lnbmF0dXJleE1zZWxmI2p1bWJmPS9jMnBhL3VybjpjMnBhOjcxY2E2OWIxLWRmZjUtNGE0MS05NjVhLTM0ZmExOTYxYzRmZS9jMnBhLnNpZ25hdHVyZWppbnN0YW5jZUlEeCx4bXA6aWlkOjhmOTU2OWI5LWMyNGItNDU5NC04MWZlLTI0NWIyMjhkMDY2YXJjcmVhdGVkX2Fzc2VydGlvbnODomN1cmx4LXNlbGYjanVtYmY9YzJwYS5hc3NlcnRpb25zL2MycGEuaW5ncmVkaWVudC52M2RoYXNoWCA3gWVFK66a39D2nx3M4j8jhmIBgWgdTB/kOFoJAn6oeKJjdXJseCpzZWxmI2p1bWJmPWMycGEuYXNzZXJ0aW9ucy9jMnBhLmFjdGlvbnMudjJkaGFzaFggAuJjj2Gy0mhU8Mujk3iCD8rUXXooeqt4k4nTd8RdJ1eiY3VybHgpc2VsZiNqdW1iZj1jMnBhLmFzc2VydGlvbnMvYzJwYS5oYXNoLmRhdGFkaGFzaFgg7eiAgDKzpp2OVC+FPKooKI6VXKWYttR6dCWR/KFUp2J0Y2xhaW1fZ2VuZXJhdG9yX2luZm+jZG5hbWVvQW50aHJvcGljIEZpbGVzZ3ZlcnNpb25lMS4wLjBrc3BlY1ZlcnNpb25lMi40LjAAABA4anVtYgAAAChqdW1kYzJjcwARABCAAACqADibcQNjMnBhLnNpZ25hdHVyZQAAABAIY2JvctKEWQISogEmGCFZAgowggIGMIIBjaADAgECAhRA5aAK7sI50L64g/oGQgU9Z1UTADAKBggqhkjOPQQDAzBJMRcwFQYDVQQKEw5BbnRocm9waWMsIFBCQzEuMCwGA1UEAxMlQW50aHJvcGljIENvbnRlbnQgQ3JlZGVudGlhbHMgUm9vdCBDQTAeFw0yNjA4MDcxODQzNTZaFw0yODA4MDYxOTQzNTZaMEQxFzAVBgNVBAoTDkFudGhyb3BpYywgUEJDMSkwJwYDVQQDEyBBbnRocm9waWMgQ2xhdWRlIENvbnRlbnQgU2lnbmluZzBZMBMGByqGSM49AgEGCCqGSM49AwEHA0IABJh6CmvLUBgFFNU0vUKlOVtE6djd17L5SuwX0LemFisBM3dkd/3cyjxFA3Qo5S46fX0/ihY0VZ7mfb9KF703t5OjWDBWMA4GA1UdDwEB/wQEAwIHgDAVBgNVHSUEDjAMBgorBgEEAYPoXgIBMAwGA1UdEwEB/wQCMAAwHwYDVR0jBBgwFoAUzlHiBIFOZFsj+OPEz5o+nMHXXMIwCgYIKoZIzj0EAwMDZwAwZAIwMXMdFJ4BetLLVY7ORuE9noqbbAZOZn/aArXyTwFAZfKrPzxF2vPoJNf1+UCdg1XGAjBwX1zd9WGqYkqmL5SFqw1QySjr1zJfpJM9+1rdDwSPLMOPOjKuiXjoU/pUUeG9RwmhY3BhZFkNngAAAAAAAAAAAAAAAAAAAAAAAAAAAAAAAAAAAAAAAAAAAAAAAAAAAAAAAAAAAAAAAAAAAAAAAAAAAAAAAAAAAAAAAAAAAAAAAAAAAAAAAAAAAAAAAAAAAAAAAAAAAAAAAAAAAAAAAAAAAAAAAAAAAAAAAAAAAAAAAAAAAAAAAAAAAAAAAAAAAAAAAAAAAAAAAAAAAAAAAAAAAAAAAAAAAAAAAAAAAAAAAAAAAAAAAAAAAAAAAAAAAAAAAAAAAAAAAAAAAAAAAAAAAAAAAAAAAAAAAAAAAAAAAAAAAAAAAAAAAAAAAAAAAAAAAAAAAAAAAAAAAAAAAAAAAAAAAAAAAAAAAAAAAAAAAAAAAAAAAAAAAAAAAAAAAAAAAAAAAAAAAAAAAAAAAAAAAAAAAAAAAAAAAAAAAAAAAAAAAAAAAAAAAAAAAAAAAAAAAAAAAAAAAAAAAAAAAAAAAAAAAAAAAAAAAAAAAAAAAAAAAAAAAAAAAAAAAAAAAAAAAAAAAAAAAAAAAAAAAAAAAAAAAAAAAAAAAAAAAAAAAAAAAAAAAAAAAAAAAAAAAAAAAAAAAAAAAAAAAAAAAAAAAAAAAAAAAAAAAAAAAAAAAAAAAAAAAAAAAAAAAAAAAAAAAAAAAAAAAAAAAAAAAAAAAAAAAAAAAAAAAAAAAAAAAAAAAAAAAAAAAAAAAAAAAAAAAAAAAAAAAAAAAAAAAAAAAAAAAAAAAAAAAAAAAAAAAAAAAAAAAAAAAAAAAAAAAAAAAAAAAAAAAAAAAAAAAAAAAAAAAAAAAAAAAAAAAAAAAAAAAAAAAAAAAAAAAAAAAAAAAAAAAAAAAAAAAAAAAAAAAAAAAAAAAAAAAAAAAAAAAAAAAAAAAAAAAAAAAAAAAAAAAAAAAAAAAAAAAAAAAAAAAAAAAAAAAAAAAAAAAAAAAAAAAAAAAAAAAAAAAAAAAAAAAAAAAAAAAAAAAAAAAAAAAAAAAAAAAAAAAAAAAAAAAAAAAAAAAAAAAAAAAAAAAAAAAAAAAAAAAAAAAAAAAAAAAAAAAAAAAAAAAAAAAAAAAAAAAAAAAAAAAAAAAAAAAAAAAAAAAAAAAAAAAAAAAAAAAAAAAAAAAAAAAAAAAAAAAAAAAAAAAAAAAAAAAAAAAAAAAAAAAAAAAAAAAAAAAAAAAAAAAAAAAAAAAAAAAAAAAAAAAAAAAAAAAAAAAAAAAAAAAAAAAAAAAAAAAAAAAAAAAAAAAAAAAAAAAAAAAAAAAAAAAAAAAAAAAAAAAAAAAAAAAAAAAAAAAAAAAAAAAAAAAAAAAAAAAAAAAAAAAAAAAAAAAAAAAAAAAAAAAAAAAAAAAAAAAAAAAAAAAAAAAAAAAAAAAAAAAAAAAAAAAAAAAAAAAAAAAAAAAAAAAAAAAAAAAAAAAAAAAAAAAAAAAAAAAAAAAAAAAAAAAAAAAAAAAAAAAAAAAAAAAAAAAAAAAAAAAAAAAAAAAAAAAAAAAAAAAAAAAAAAAAAAAAAAAAAAAAAAAAAAAAAAAAAAAAAAAAAAAAAAAAAAAAAAAAAAAAAAAAAAAAAAAAAAAAAAAAAAAAAAAAAAAAAAAAAAAAAAAAAAAAAAAAAAAAAAAAAAAAAAAAAAAAAAAAAAAAAAAAAAAAAAAAAAAAAAAAAAAAAAAAAAAAAAAAAAAAAAAAAAAAAAAAAAAAAAAAAAAAAAAAAAAAAAAAAAAAAAAAAAAAAAAAAAAAAAAAAAAAAAAAAAAAAAAAAAAAAAAAAAAAAAAAAAAAAAAAAAAAAAAAAAAAAAAAAAAAAAAAAAAAAAAAAAAAAAAAAAAAAAAAAAAAAAAAAAAAAAAAAAAAAAAAAAAAAAAAAAAAAAAAAAAAAAAAAAAAAAAAAAAAAAAAAAAAAAAAAAAAAAAAAAAAAAAAAAAAAAAAAAAAAAAAAAAAAAAAAAAAAAAAAAAAAAAAAAAAAAAAAAAAAAAAAAAAAAAAAAAAAAAAAAAAAAAAAAAAAAAAAAAAAAAAAAAAAAAAAAAAAAAAAAAAAAAAAAAAAAAAAAAAAAAAAAAAAAAAAAAAAAAAAAAAAAAAAAAAAAAAAAAAAAAAAAAAAAAAAAAAAAAAAAAAAAAAAAAAAAAAAAAAAAAAAAAAAAAAAAAAAAAAAAAAAAAAAAAAAAAAAAAAAAAAAAAAAAAAAAAAAAAAAAAAAAAAAAAAAAAAAAAAAAAAAAAAAAAAAAAAAAAAAAAAAAAAAAAAAAAAAAAAAAAAAAAAAAAAAAAAAAAAAAAAAAAAAAAAAAAAAAAAAAAAAAAAAAAAAAAAAAAAAAAAAAAAAAAAAAAAAAAAAAAAAAAAAAAAAAAAAAAAAAAAAAAAAAAAAAAAAAAAAAAAAAAAAAAAAAAAAAAAAAAAAAAAAAAAAAAAAAAAAAAAAAAAAAAAAAAAAAAAAAAAAAAAAAAAAAAAAAAAAAAAAAAAAAAAAAAAAAAAAAAAAAAAAAAAAAAAAAAAAAAAAAAAAAAAAAAAAAAAAAAAAAAAAAAAAAAAAAAAAAAAAAAAAAAAAAAAAAAAAAAAAAAAAAAAAAAAAAAAAAAAAAAAAAAAAAAAAAAAAAAAAAAAAAAAAAAAAAAAAAAAAAAAAAAAAAAAAAAAAAAAAAAAAAAAAAAAAAAAAAAAAAAAAAAAAAAAAAAAAAAAAAAAAAAAAAAAAAAAAAAAAAAAAAAAAAAAAAAAAAAAAAAAAAAAAAAAAAAAAAAAAAAAAAAAAAAAAAAAAAAAAAAAAAAAAAAAAAAAAAAAAAAAAAAAAAAAAAAAAAAAAAAAAAAAAAAAAAAAAAAAAAAAAAAAAAAAAAAAAAAAAAAAAAAAAAAAAAAAAAAAAAAAAAAAAAAAAAAAAAAAAAAAAAAAAAAAAAAAAAAAAAAAAAAAAAAAAAAAAAAAAAAAAAAAAAAAAAAAAAAAAAAAAAAAAAAAAAAAAAAAAAAAAAAAAAAAAAAAAAAAAAAAAAAAAAAAAAAAAAAAAAAAAAAAAAAAAAAAAAAAAAAAAAAAAAAAAAAAAAAAAAAAAAAAAAAAAAAAAAAAAAAAAAAAAAAAAAAAAAAAAAAAAAAAAAAAAAAAAAAAAAAAAAAAAAAAAAAAAAAAAAAAAAAAAAAAAAAAAAAAAAAAAAAAAAAAAAAAAAAAAAAAAAAAAAAAAAAAAAAAAAAAAAAAAAAAAAAAAAAAAAAAAAAAAAAAAAAAAAAAAAAAAAAAAAAAAAAAAAAAAAAAAAAAAAAAAAAAAAAAAAAAAAAAAAAAAAAAAAAAAAAAAAAAAAAAAAAAAAAAAAAAAAAAAAAAAAAAAAAAAAAAAAAAAAAAAAAAAAAAAAAAAAAAAAAAAAAAAAAAAAAAAAAAAAAAAAAAAAAAAAAAAAAAAAAAAAAAAAAAAAAAAAAAAAAAAAAAAAAAAAAAAAAAAAAAAAAAAAAAAAAAAAAAAAAAAAAAAAAAAAAAAAAAAAAAAAAAAAAAAAAAAAAAAAAAAAAAAAAAAAAAAAAAAAAAAAAAAAAAAAAAAAAAAAAAAAAAAAAAAAAAAAAAAAAAAAAAAAAAAAAAAAAAAAAAAAAAAAAAAAAAAAAAAAAAAAAAAAAAAAAAAAAAAAAAAAAAAAAAAAAAAAAAAAAAAAAAAAAAAAAAAAAAAAAAAAAAAAAAAAAAAAAAAAAAAAAAAAAAAAAAAAAAAAAAAAAAAAAAAAAAAAAAAAAAAAAAAAAAAAAAAAAAAAAAAAAAAAAAAAAAAAAAAAAAAAAAAAAAAAAAAAAAAAAAAAAAAAAAAAAAAAAAAAAAAAAAAAAAAAAAAAAAAAAAAAAAAAAAAAAAAAAAAAAAAAAAAAAAAAAAAAAAAAAAAAAAAAAAAAAAAAAAAAAAAAAAAAAAAAAAAAAAAAAAAAAAAAAAAAAAAAAAAAAAAAAAAAAAAAAAAAAAAAAAAAAAAAAAAAAAAAAAAAAAAAAAAAAAAAAAAAAAAAAAAAAAAAAAAAAAAAAAAAAAAAAAAAAAAAAAAAAAAAAAAAAAAAAAAAAAAAAAAAAAAAAAAAAAAAAAAAAAAAAAAAAAAAAAAAAAAAAAAAAAAAAAAAAAAAAAAAAAAAAAAAAAAAAAAAAAAAAAAAAAAAAAAAAAAAAAAAAAAAAAAAAAAAAAAAAAAAAAAAAAAAAAAAAAAAAAAAAAAAAAAAAAAAAAAAAAAAAAAAAAAAAAAAAAAAAAAAAAAAAAAAAAAAAAAAAAAAAAAAAAAAAAAAAAAAAAAAAAAAAAAAAAAAAAAAAAAAAAAAAAAAAAAAAAAAAAAAAAAAAAAAAAAAAAAAAAAAAAAAAAAAAAAAAAAAAAAAAAAAAAAAAAAAAAAAAAAAAAAAAAAAAAAAAAAAAAAAAAAAAAAAAAAAAAAAAAAAAAAAAAAAAAAAAAAAAAAAAAAAAAAAAAAAAAAAAAAAAAAAAAAAAAAAAAAAAAAAAAAAAAAAAAAAAAAAAAAAAAAAAAAAAAAAAAAAAAAAAAAAAAAAAAAAAAAAAAAAAAAAAAAAAAAAAAAAAAAAAAAAAAAAAAAAAAAAAAAAAAAAAAAAAAAAAAAAAAAAAAAAAAAAAAAAAAAAAAAAAAAAAAAAAAAAAAAAAAAAAAAAAAAAAAAAAAAAAAAAAAAAAAAAAAAAAAAAAAAAAAAAAAAAAAAAAAAAAAAAAAAAAPZYQNkOeMEWQF6weu3BH549/jV3kqSrDEGi5kJgTVbHwFz5IjnPr4HOKbwYTK9otfhK9lmjtql6frd6H5O4SAKQRNI=</c2pa:manifest></metadata>
&#x9;<title>marathon-svg</title>
&#x9;
&#x9;<path id="holding_line_1_-1" class="s0" d="m1132.9 31.1c57.7 1.4 115.4 38.9 138.5 93.8l141.3 317.3 112.5 252.5c7.2 24.5 7.2 53.4 2.9 79.3l-83.6 308.8c-18.8 53.3-75 98.1-131.3 102.4h-1060c-54.8-2.9-111.1-41.8-131.3-93.8l-11.5-33.2-43.3-160.1-33.1-125.5c-5.8-28.9-1.5-57.7 7.2-83.7l243.7-558.3c20.2-56.2 79.3-96.6 138.5-99.5z" fill="#ffffff"></path>
&#x9;<path id="Layer" fill-rule="evenodd" class="s0" d="m1316.1 1214h-1064.4c-67.7-4.3-132.6-50.5-157.2-113.9l-12.9-37.5-77.9-285.7c-5.8-31.7-2.9-66.3 8.6-98.1l1.5-1.4 242.3-558.3c6.6-16.7 15.6-32.4 26.7-46.6 11-14.1 24.1-26.6 38.7-37 14.7-10.5 30.7-18.8 47.7-24.6 17-5.9 34.8-9.3 52.7-10.1h711c72.1 1.4 139.9 47.6 167.3 112.5l255.3 571.3c11.5 34.6 7.2 73.6 4.3 93.8v2.9l-83.6 311.6c-24.5 64.9-90.9 116.8-160.1 121.1zm-1061.5-60.6h1058.6c43.3-4.3 88-37.5 102.4-80.7l82.2-305.9c4.3-23.1 2.9-46.1-1.4-62l-252.4-568.4c-18.8-43.3-63.5-73.6-112.5-75h-708.1c-46.2 1.4-93.8 36.1-109.6 79.3v1.5l-243.8 558.3c-7.2 21.6-10.1 44.7-5.7 64.9l76.4 281.3 11.5 33.2c14.5 38.9 57.7 70.7 102.4 73.5z" fill="#ffffff"></path>
&#x9;<path id="blue_line_shield-2" class="s1" d="m1118.5 52.7c56.3 1.5 111.1 37.5 132.7 89.5l137 304.4 108.2 242.3c7.2 23.1 7.2 52 2.9 76.5l-80.8 297.2c-18.8 51.9-72.1 93.7-125.5 98.1h-1019.6c-53.4-2.9-106.7-40.4-125.5-90.9l-10.1-30.3-43.3-154.4-33.1-118.3c-4.4-27.4-1.5-56.2 7.2-79.3l233.6-536.7c20.2-54.8 76.5-93.7 132.7-95.2h683.6z" fill="#0033a1"></path>
&#x9;<path id="white_inside_shield-3" class="s0" d="m1122.8 107.6c36.1 2.8 72.2 33.1 83.7 69.2l214.9 476.1c13 27.4 36 59.1 27.4 96.6l-11.6 49.1-64.9 239.4c-8.6 36.1-44.7 63.5-79.3 69.3h-1006.6c-31.8 0-60.6-13-80.8-40.4-18.8-31.7-92.3-317.4-92.3-317.4-2.9-27.4 7.2-51.9 18.7-75l181.8-415.5 44.7-101c18.7-33.1 53.3-50.4 87.9-51.9z" fill="#ffffff"></path>
&#x9;<path id="BIG_M-4" fill-rule="evenodd" class="s2" d="m779.6 537.5l125.5-324.6h191.8l170.2 553.9h-235.1l-26-304.4-151.4 304.4h-148.6l-152.8-301.5-26 301.5h-233.6l164.4-553.9h191.8z" fill="#db0032"></path>
&#x9;<path id="M-5" class="s1" d="m331.1 915.4l15.8-79.3h49.1l18.7 154.3h-37.5l-11.5-99.5c-5.8 33.2-11.6 66.4-15.9 99.5h-38.9l-17.3-99.5c-4.4 33.2-7.2 66.4-11.6 99.5h-37.5l21.7-155.8h49z" fill="#0033a1"></path>
&#x9;<path id="A-6" class="s1" d="m548.8 990.4h-38.9l-4.3-27.4h-36.1l-5.7 27.4h-39l33.2-155.8h57.7z" fill="#0033a1"></path>
&#x9;<path id="R-7" class="s1" d="m649.8 839c23.1 11.5 21.6 38.9 20.2 60.5-2.9 11.6-7.2 24.6-20.2 28.9v4.3l21.6 56.3h-37.5l-18.7-54.8c-2.9-1.5-7.2-1.5-10.1 0v54.8h-37.5v-154.4c1.4 0 60.6-4.3 82.2 4.4z" fill="#0033a1"></path>
&#x9;<path id="A__x23_2-8" class="s1" d="m807 990.4h-40.4l-4.3-27.4h-36.1l-5.7 27.4h-37.5l31.7-155.8h57.7z" fill="#0033a1"></path>
&#x9;<path id="T-9" class="s1" d="m903.6 867.8h-33.1v122.6h-37.5v-122.6h-33.2v-33.2h103.8z" fill="#0033a1"></path>
&#x9;<path id="H-10" class="s1" d="m955.5 896.7h33.2v-62.1h39v155.8h-39v-60.6h-33.2v60.6h-37.5v-155.8h37.5z" fill="#0033a1"></path>
&#x9;<path id="O_1_-11" class="s1" d="m1109.9 993.3c-21.7 0-39-5.8-49.1-20.2-8.6-14.4-11.5-31.7-11.5-62 0-31.7 5.8-59.2 23.1-67.8 17.3-8.7 25.9-10.1 36-10.1 10.1 0 20.2 0 36.1 10.1 17.3 8.6 23.1 36.1 23.1 67.8 0 31.7-1.5 49-11.6 62-7.2 14.4-24.5 20.2-46.1 20.2z" fill="#0033a1"></path>
&#x9;<path id="N-12" class="s1" d="m1269.9 934.2v-99.6h34.7v155.8h-50.5l-27.4-93.7v93.7h-33.2v-155.8h50.5z" fill="#0033a1"></path>
&#x9;<g id="Layer">
&#x9;&#x9;<path id="inside_A-13" class="s0" d="m498.4 934.2h-24.6l13-66.4c5.8 20.2 8.7 43.3 11.6 66.4z" fill="#ffffff"></path>
&#x9;&#x9;<path id="inside_R-14" class="s0" d="m628.2 869.3c5.7 7.2 7.2 18.7 4.3 27.4-2.9 2.8-2.9 7.2-8.7 7.2h-15.8v-37.5c-1.5 0 14.4-1.5 20.2 2.9z" fill="#ffffff"></path>
&#x9;&#x9;<path id="inside_A_2nd-15" class="s0" d="m756.5 934.2h-24.5l13-66.4c4.3 20.2 7.2 43.3 11.5 66.4z" fill="#ffffff"></path>
&#x9;&#x9;<path id="inside_O_1_-16" class="s0" d="m1109.9 961.6c-7.2 0-14.5-2.9-17.3-13-2.9-8.7-4.4-18.8-4.4-37.5 0-18.8 1.5-36.1 8.7-41.8 5.8-5.8 10.1-5.8 13-5.8 4.3 0 7.2 0 12.9 5.8 5.8 5.7 8.7 21.6 8.7 41.8 0 18.7-1.4 28.8-4.3 37.5-2.9 10.1-10.1 13-17.3 13z" fill="#ffffff"></path>
&#x9;</g>
</svg>